<svg id="visual" viewBox="0 0 900 150" width="900" height="150" xmlns="http://www.w3.org/2000/svg" xmlns:xlink="http://www.w3.org/1999/xlink" version="1.1"><rect x="0" y="0" width="900" height="150" fill="#eeeeee"></rect><path d="M0 70L9.3 68.5C18.7 67 37.3 64 56.2 70.8C75 77.7 94 94.3 112.8 96.3C131.7 98.3 150.3 85.7 169 81.3C187.7 77 206.3 81 225 76.5C243.7 72 262.3 59 281.2 55.2C300 51.3 319 56.7 337.8 62C356.7 67.3 375.3 72.7 394 72.8C412.7 73 431.3 68 450 65.8C468.7 63.7 487.3 64.3 506.2 71C525 77.7 544 90.3 562.8 88.8C581.7 87.3 600.3 71.7 619 62.2C637.7 52.7 656.3 49.3 675 58.5C693.7 67.7 712.3 89.3 731.2 95C750 100.7 769 90.3 787.8 79C806.7 67.7 825.3 55.3 844 52.3C862.7 49.3 881.3 55.7 890.7 58.8L900 62L900 151L890.7 151C881.3 151 862.7 151 844 151C825.3 151 806.7 151 787.8 151C769 151 750 151 731.2 151C712.3 151 693.7 151 675 151C656.3 151 637.7 151 619 151C600.3 151 581.7 151 562.8 151C544 151 525 151 506.2 151C487.3 151 468.7 151 450 151C431.3 151 412.7 151 394 151C375.3 151 356.7 151 337.8 151C319 151 300 151 281.2 151C262.3 151 243.7 151 225 151C206.3 151 187.7 151 169 151C150.3 151 131.7 151 112.8 151C94 151 75 151 56.2 151C37.3 151 18.7 151 9.3 151L0 151Z" fill="#ffb1ac"></path><path d="M0 56L9.3 59.3C18.7 62.7 37.3 69.3 56.2 78.2C75 87 94 98 112.8 100.3C131.7 102.7 150.3 96.3 169 89.3C187.7 82.3 206.3 74.7 225 74.5C243.7 74.3 262.3 81.7 281.2 86.2C300 90.7 319 92.3 337.8 96.8C356.7 101.3 375.3 108.7 394 105C412.7 101.3 431.3 86.7 450 85.5C468.7 84.3 487.3 96.7 506.2 98C525 99.3 544 89.7 562.8 88.2C581.7 86.7 600.3 93.3 619 95.8C637.7 98.3 656.3 96.7 675 91.5C693.7 86.3 712.3 77.7 731.2 73.7C750 69.7 769 70.3 787.8 75.5C806.7 80.7 825.3 90.3 844 88.2C862.7 86 881.3 72 890.7 65L900 58L900 151L890.7 151C881.3 151 862.7 151 844 151C825.3 151 806.7 151 787.8 151C769 151 750 151 731.2 151C712.3 151 693.7 151 675 151C656.3 151 637.7 151 619 151C600.3 151 581.7 151 562.8 151C544 151 525 151 506.2 151C487.3 151 468.7 151 450 151C431.3 151 412.7 151 394 151C375.3 151 356.7 151 337.8 151C319 151 300 151 281.2 151C262.3 151 243.7 151 225 151C206.3 151 187.7 151 169 151C150.3 151 131.7 151 112.8 151C94 151 75 151 56.2 151C37.3 151 18.7 151 9.3 151L0 151Z" fill="#ff8fa0"></path><path d="M0 99L9.3 93.5C18.7 88 37.3 77 56.2 78.3C75 79.7 94 93.3 112.8 98C131.7 102.7 150.3 98.3 169 94.8C187.7 91.3 206.3 88.7 225 88.3C243.7 88 262.3 90 281.2 88.7C300 87.3 319 82.7 337.8 85.8C356.7 89 375.3 100 394 101.5C412.7 103 431.3 95 450 90.8C468.7 86.7 487.3 86.3 506.2 90.3C525 94.3 544 102.7 562.8 108C581.7 113.3 600.3 115.7 619 109.7C637.7 103.7 656.3 89.3 675 85.2C693.7 81 712.3 87 731.2 92.2C750 97.3 769 101.7 787.8 99.7C806.7 97.7 825.3 89.3 844 87.2C862.7 85 881.3 89 890.7 91L900 93L900 151L890.7 151C881.3 151 862.7 151 844 151C825.3 151 806.7 151 787.8 151C769 151 750 151 731.2 151C712.3 151 693.7 151 675 151C656.3 151 637.7 151 619 151C600.3 151 581.7 151 562.8 151C544 151 525 151 506.2 151C487.3 151 468.7 151 450 151C431.3 151 412.7 151 394 151C375.3 151 356.7 151 337.8 151C319 151 300 151 281.2 151C262.3 151 243.7 151 225 151C206.3 151 187.7 151 169 151C150.3 151 131.7 151 112.8 151C94 151 75 151 56.2 151C37.3 151 18.7 151 9.3 151L0 151Z" fill="#ff6aa1"></path><path d="M0 114L9.3 113.2C18.7 112.3 37.3 110.7 56.2 109C75 107.3 94 105.7 112.8 102.7C131.7 99.7 150.3 95.3 169 95.2C187.7 95 206.3 99 225 101.8C243.7 104.7 262.3 106.3 281.2 104.7C300 103 319 98 337.8 93.2C356.7 88.3 375.3 83.7 394 83C412.7 82.3 431.3 85.7 450 93C468.7 100.3 487.3 111.7 506.2 113.8C525 116 544 109 562.8 108.2C581.7 107.3 600.3 112.7 619 112.8C637.7 113 656.3 108 675 107.5C693.7 107 712.3 111 731.2 113.8C750 116.7 769 118.3 787.8 114.7C806.7 111 825.3 102 844 100.7C862.7 99.3 881.3 105.7 890.7 108.8L900 112L900 151L890.7 151C881.3 151 862.7 151 844 151C825.3 151 806.7 151 787.8 151C769 151 750 151 731.2 151C712.3 151 693.7 151 675 151C656.3 151 637.7 151 619 151C600.3 151 581.7 151 562.8 151C544 151 525 151 506.2 151C487.3 151 468.7 151 450 151C431.3 151 412.7 151 394 151C375.3 151 356.7 151 337.8 151C319 151 300 151 281.2 151C262.3 151 243.7 151 225 151C206.3 151 187.7 151 169 151C150.3 151 131.7 151 112.8 151C94 151 75 151 56.2 151C37.3 151 18.7 151 9.3 151L0 151Z" fill="#f941ad"></path><path d="M0 119L9.3 116C18.7 113 37.3 107 56.2 107.2C75 107.3 94 113.7 112.8 118C131.7 122.3 150.3 124.7 169 122.7C187.7 120.7 206.3 114.3 225 114.5C243.7 114.7 262.3 121.3 281.2 122C300 122.7 319 117.3 337.8 113.2C356.7 109 375.3 106 394 102.8C412.7 99.7 431.3 96.3 450 95.8C468.7 95.3 487.3 97.7 506.2 100.8C525 104 544 108 562.8 107.3C581.7 106.7 600.3 101.3 619 101.3C637.7 101.3 656.3 106.7 675 109.7C693.7 112.7 712.3 113.3 731.2 111.7C750 110 769 106 787.8 103.2C806.7 100.3 825.3 98.7 844 97.2C862.7 95.7 881.3 94.3 890.7 93.7L900 93L900 151L890.7 151C881.3 151 862.7 151 844 151C825.3 151 806.7 151 787.8 151C769 151 750 151 731.2 151C712.3 151 693.7 151 675 151C656.3 151 637.7 151 619 151C600.3 151 581.7 151 562.8 151C544 151 525 151 506.2 151C487.3 151 468.7 151 450 151C431.3 151 412.7 151 394 151C375.3 151 356.7 151 337.8 151C319 151 300 151 281.2 151C262.3 151 243.7 151 225 151C206.3 151 187.7 151 169 151C150.3 151 131.7 151 112.8 151C94 151 75 151 56.2 151C37.3 151 18.7 151 9.3 151L0 151Z" fill="#e205c3"></path><path d="M0 120L9.3 120.8C18.7 121.7 37.3 123.3 56.2 123.8C75 124.3 94 123.7 112.8 122.3C131.7 121 150.3 119 169 117.3C187.7 115.7 206.3 114.3 225 112.8C243.7 111.3 262.3 109.7 281.2 111.2C300 112.7 319 117.3 337.8 119.3C356.7 121.3 375.3 120.7 394 120.3C412.7 120 431.3 120 450 118.2C468.7 116.3 487.3 112.7 506.2 114.8C525 117 544 125 562.8 127C581.7 129 600.3 125 619 121.2C637.7 117.3 656.3 113.7 675 113.7C693.7 113.7 712.3 117.3 731.2 117.2C750 117 769 113 787.8 114.2C806.7 115.3 825.3 121.7 844 123.5C862.7 125.3 881.3 122.7 890.7 121.3L900 120L900 151L890.7 151C881.3 151 862.7 151 844 151C825.3 151 806.7 151 787.8 151C769 151 750 151 731.2 151C712.3 151 693.7 151 675 151C656.3 151 637.7 151 619 151C600.3 151 581.7 151 562.8 151C544 151 525 151 506.2 151C487.3 151 468.7 151 450 151C431.3 151 412.7 151 394 151C375.3 151 356.7 151 337.8 151C319 151 300 151 281.2 151C262.3 151 243.7 151 225 151C206.3 151 187.7 151 169 151C150.3 151 131.7 151 112.8 151C94 151 75 151 56.2 151C37.3 151 18.7 151 9.3 151L0 151Z" fill="#b800df"></path><path d="M0 124L9.3 125.3C18.7 126.7 37.3 129.3 56.2 130.7C75 132 94 132 112.8 131.5C131.7 131 150.3 130 169 129.8C187.7 129.7 206.3 130.3 225 129.7C243.7 129 262.3 127 281.2 127.5C300 128 319 131 337.8 132.8C356.7 134.7 375.3 135.3 394 135.8C412.7 136.3 431.3 136.7 450 135.5C468.7 134.3 487.3 131.7 506.2 129.3C525 127 544 125 562.8 125.7C581.7 126.3 600.3 129.7 619 131.5C637.7 133.3 656.3 133.7 675 132.5C693.7 131.3 712.3 128.7 731.2 128.2C750 127.7 769 129.3 787.8 130C806.7 130.7 825.3 130.3 844 130.2C862.7 130 881.3 130 890.7 130L900 130L900 151L890.7 151C881.3 151 862.7 151 844 151C825.3 151 806.7 151 787.8 151C769 151 750 151 731.2 151C712.3 151 693.7 151 675 151C656.3 151 637.7 151 619 151C600.3 151 581.7 151 562.8 151C544 151 525 151 506.2 151C487.3 151 468.7 151 450 151C431.3 151 412.7 151 394 151C375.3 151 356.7 151 337.8 151C319 151 300 151 281.2 151C262.3 151 243.7 151 225 151C206.3 151 187.7 151 169 151C150.3 151 131.7 151 112.8 151C94 151 75 151 56.2 151C37.3 151 18.7 151 9.3 151L0 151Z" fill="#6214ff"></path></svg>